<svg width="38" height="38" viewBox="0 0 38 38" fill="none" xmlns="http://www.w3.org/2000/svg">
<g filter="url(#filter0_d_2_62)">
<rect x="4" width="30" height="30" rx="8" fill="#AF9E00"/>
<rect x="4.5" y="0.5" width="29" height="29" rx="7.5" stroke="#EEEEEE"/>
</g>
<path d="M13.0259 24.7368C12.8017 24.7368 12.6034 24.6711 12.431 24.5395C12.2586 24.4079 12.1724 24.2368 12.1724 24.0263V21.8158C11.6724 21.5351 11.306 21.1316 11.0733 20.6053C10.8405 20.079 10.7241 19.5175 10.7241 18.9211V8.47369C10.7241 7.17544 11.3836 6.22807 12.7026 5.63158C14.0215 5.03509 16.1293 4.73685 19.0259 4.73685C21.8879 4.73685 23.9784 5.03509 25.2974 5.63158C26.6164 6.22807 27.2759 7.17544 27.2759 8.47369V18.9211C27.2759 19.5175 27.1595 20.079 26.9267 20.6053C26.694 21.1316 26.3276 21.5351 25.8276 21.8158V24.0263C25.8276 24.2368 25.7414 24.4079 25.569 24.5395C25.3966 24.6711 25.1983 24.7368 24.9741 24.7368H24.4828C24.2414 24.7368 24.0345 24.6711 23.8621 24.5395C23.6897 24.4079 23.6034 24.2368 23.6034 24.0263V22.579H14.3966V24.0263C14.3966 24.2368 14.3103 24.4079 14.1379 24.5395C13.9655 24.6711 13.7586 24.7368 13.5172 24.7368H13.0259ZM19.0259 7.78948C20.7328 7.78948 22.1724 7.78948 23.3448 7.78948C24.5172 7.78948 25.3103 7.78948 25.7241 7.78948H12.2759C12.569 7.78948 13.2586 7.78948 14.3448 7.78948C15.431 7.78948 16.9914 7.78948 19.0259 7.78948ZM23.6034 15.5H14.3966C13.7931 15.5 13.2888 15.5 12.8836 15.5C12.4784 15.5 12.2759 15.5 12.2759 15.5H25.7241C25.7241 15.5 25.5216 15.5 25.1164 15.5C24.7112 15.5 24.2069 15.5 23.6034 15.5ZM12.2759 13.9211H25.7241V9.36843H12.2759V13.9211ZM15.0172 19.6842C15.4138 19.6842 15.75 19.5439 16.0259 19.2632C16.3017 18.9825 16.4397 18.6404 16.4397 18.2368C16.4397 17.8333 16.3017 17.4912 16.0259 17.2105C15.75 16.9298 15.4138 16.7895 15.0172 16.7895C14.6207 16.7895 14.2845 16.9298 14.0086 17.2105C13.7328 17.4912 13.5948 17.8333 13.5948 18.2368C13.5948 18.6404 13.7328 18.9825 14.0086 19.2632C14.2845 19.5439 14.6207 19.6842 15.0172 19.6842ZM22.9828 19.6842C23.3793 19.6842 23.7155 19.5439 23.9914 19.2632C24.2672 18.9825 24.4052 18.6404 24.4052 18.2368C24.4052 17.8333 24.2672 17.4912 23.9914 17.2105C23.7155 16.9298 23.3793 16.7895 22.9828 16.7895C22.5862 16.7895 22.25 16.9298 21.9741 17.2105C21.6983 17.4912 21.5603 17.8333 21.5603 18.2368C21.5603 18.6404 21.6983 18.9825 21.9741 19.2632C22.25 19.5439 22.5862 19.6842 22.9828 19.6842ZM12.2759 7.78948H25.7241C25.3103 7.33334 24.5172 6.97369 23.3448 6.71053C22.1724 6.44737 20.7328 6.31579 19.0259 6.31579C16.9914 6.31579 15.431 6.43422 14.3448 6.67106C13.2586 6.9079 12.569 7.28071 12.2759 7.78948ZM14.3966 21H23.6034C24.2069 21 24.7112 20.7632 25.1164 20.2895C25.5216 19.8158 25.7241 19.2719 25.7241 18.6579V15.5H12.2759V18.6579C12.2759 19.2719 12.4784 19.8158 12.8836 20.2895C13.2888 20.7632 13.7931 21 14.3966 21Z" fill="#EEEEEE"/>
<defs>
<filter id="filter0_d_2_62" x="0" y="0" width="38" height="38" filterUnits="userSpaceOnUse" color-interpolation-filters="sRGB">
<feFlood flood-opacity="0" result="BackgroundImageFix"/>
<feColorMatrix in="SourceAlpha" type="matrix" values="0 0 0 0 0 0 0 0 0 0 0 0 0 0 0 0 0 0 127 0" result="hardAlpha"/>
<feOffset dy="4"/>
<feGaussianBlur stdDeviation="2"/>
<feComposite in2="hardAlpha" operator="out"/>
<feColorMatrix type="matrix" values="0 0 0 0 0 0 0 0 0 0 0 0 0 0 0 0 0 0 0.25 0"/>
<feBlend mode="normal" in2="BackgroundImageFix" result="effect1_dropShadow_2_62"/>
<feBlend mode="normal" in="SourceGraphic" in2="effect1_dropShadow_2_62" result="shape"/>
</filter>
</defs>
</svg>