<svg width="40" height="39" viewBox="0 0 40 39" fill="none" xmlns="http://www.w3.org/2000/svg">
<g filter="url(#filter0_d_9_15)">
<rect x="4" width="31.2939" height="30.1348" rx="10" fill="#FF5C00"/>
<rect x="4.5" y="0.5" width="30.2939" height="29.1348" rx="9.5" stroke="#EEEEEE"/>
</g>
<path d="M19.6469 19.4222C21.114 18.1714 22.2214 16.9691 22.969 15.8151C23.7167 14.6611 24.0905 13.5852 24.0905 12.5876C24.0905 11.709 23.9389 10.9645 23.6356 10.354C23.3323 9.74352 22.9585 9.24469 22.5141 8.85754C22.0698 8.47039 21.5866 8.1912 21.0647 8.01996C20.5427 7.84872 20.0701 7.7631 19.6469 7.7631C19.2237 7.7631 18.7512 7.84872 18.2292 8.01996C17.7073 8.1912 17.2241 8.47039 16.7798 8.85754C16.3354 9.24469 15.9616 9.74352 15.6583 10.354C15.355 10.9645 15.2033 11.709 15.2033 12.5876C15.2033 13.5852 15.5772 14.6611 16.3248 15.8151C17.0725 16.9691 18.1798 18.1714 19.6469 19.4222ZM19.6469 21.1197C17.7143 19.586 16.279 18.1193 15.3409 16.7196C14.4028 15.3199 13.9337 13.9426 13.9337 12.5876C13.9337 11.575 14.1066 10.6853 14.4522 9.91848C14.7978 9.15162 15.2457 8.50762 15.7958 7.98646C16.346 7.46529 16.9596 7.07442 17.6367 6.81384C18.3139 6.55326 18.9839 6.42297 19.6469 6.42297C20.3099 6.42297 20.98 6.55326 21.6571 6.81384C22.3343 7.07442 22.9479 7.46529 23.498 7.98646C24.0482 8.50762 24.4961 9.15162 24.8417 9.91848C25.1873 10.6853 25.3601 11.575 25.3601 12.5876C25.3601 13.9426 24.8911 15.3199 23.953 16.7196C23.0149 18.1193 21.5795 19.586 19.6469 21.1197ZM19.6469 14.017C20.056 14.017 20.4052 13.8644 20.6944 13.5592C20.9835 13.2539 21.1281 12.8854 21.1281 12.4536C21.1281 12.0217 20.9835 11.6532 20.6944 11.348C20.4052 11.0427 20.056 10.8901 19.6469 10.8901C19.2378 10.8901 18.8887 11.0427 18.5995 11.348C18.3103 11.6532 18.1657 12.0217 18.1657 12.4536C18.1657 12.8854 18.3103 13.2539 18.5995 13.5592C18.8887 13.8644 19.2378 14.017 19.6469 14.017ZM13.9337 24.2914V22.9513H25.3601V24.2914H13.9337Z" fill="white"/>
<defs>
<filter id="filter0_d_9_15" x="0" y="0" width="39.2939" height="38.1348" filterUnits="userSpaceOnUse" color-interpolation-filters="sRGB">
<feFlood flood-opacity="0" result="BackgroundImageFix"/>
<feColorMatrix in="SourceAlpha" type="matrix" values="0 0 0 0 0 0 0 0 0 0 0 0 0 0 0 0 0 0 127 0" result="hardAlpha"/>
<feOffset dy="4"/>
<feGaussianBlur stdDeviation="2"/>
<feComposite in2="hardAlpha" operator="out"/>
<feColorMatrix type="matrix" values="0 0 0 0 0 0 0 0 0 0 0 0 0 0 0 0 0 0 0.25 0"/>
<feBlend mode="normal" in2="BackgroundImageFix" result="effect1_dropShadow_9_15"/>
<feBlend mode="normal" in="SourceGraphic" in2="effect1_dropShadow_9_15" result="shape"/>
</filter>
</defs>
</svg>